<svg xmlns="http://www.w3.org/2000/svg" xmlns:xlink="http://www.w3.org/1999/xlink" width="1920" height="1080" viewBox="0 0 1920 1080">
  <defs>
    <clipPath id="clip-path">
      <rect width="1226" height="606" fill="none"/>
    </clipPath>
    <linearGradient id="linear-gradient" x1="0.083" y1="0.264" x2="0.882" y2="0.701" gradientUnits="objectBoundingBox">
      <stop offset="0" stop-color="#4226d8"/>
      <stop offset="0.109" stop-color="#4c15cf"/>
      <stop offset="0.247" stop-color="#5829c8"/>
      <stop offset="1" stop-color="#500681"/>
    </linearGradient>
    <clipPath id="clip-contact_">
      <rect width="1920" height="1080"/>
    </clipPath>
  </defs>
  <g id="contact_" data-name="contact " clip-path="url(#clip-contact_)">
    <rect width="1920" height="1080" fill="#fff"/>
    <path id="grey1" d="M223.891,0l-2.375.793L0,165.853l84.151,260.3h280.9l86.522-260.3L226.2.546Z" transform="translate(1648.176 534.455) rotate(-84)" fill="rgba(132,130,139,0.23)" stroke="#fff" stroke-width="1"/>
    <path id="grey1-2" data-name="grey1" d="M223.891,0l-2.375.793L0,165.853l84.151,260.3h280.9l86.522-260.3L226.2.546Z" transform="matrix(0.883, -0.469, 0.469, 0.883, -299.704, 250.043)" fill="rgba(132,130,139,0.23)" stroke="#fff" stroke-width="1"/>
    <path id="Union_4" data-name="Union 4" d="M-5994-5627.611v-138.225l181.139-239.889.846-.492a135.239,135.239,0,0,1,35.139-30.316,40.928,40.928,0,0,1,5.924-3.334,130.731,130.731,0,0,1,19.088-8.236c7.934-3.193,18.236-7.178,31.609-12.174,185-69.115,705.334-255.7,705.334-255.7l.18.037a151.944,151.944,0,0,1,53.244-9.561,151.047,151.047,0,0,1,104.039,41.193l867.354,559.367,15.729,475.018L-5994-5212.168Z" transform="translate(5964.497 6411)" stroke="#591cbd" stroke-width="1" fill="url(#linear-gradient)"/>
  </g>
</svg>
