<svg xmlns="http://www.w3.org/2000/svg" width="948.482" height="983.143" viewBox="0 0 948.482 983.143">
  <g id="Bulb_Brainstorming_illustration" data-name="Bulb Brainstorming illustration" transform="translate(-92.733 -68.717)">
    <path id="XMLID_844_" d="M832.222,169.866C658.546-61.39,265.159,155.579,238.1,307.681,106.419,471.4,12.834,880.877,191.273,849.129c399.809,265.673,445.05,298.72,768.447-73.237C1107.131,687.936,1048.614,424.211,832.222,169.866Z" transform="translate(0 0)" fill="#9bcb3c"/>
    <g id="XMLID_164_" transform="translate(250.433 182.053)">
      <g id="XMLID_704_" transform="translate(144.179 144.965)">
        <g id="XMLID_710_">
          <path id="XMLID_828_" d="M683.48,426.7C868.2,426.7,882.844,610.911,827.5,683.426c-55.343,72.443-63.208,116.53-63.208,116.53v25.687a24.2,24.2,0,0,1-24.244,24.244H626.911a24.2,24.2,0,0,1-24.244-24.244V799.956s-7.865-44.086-63.207-116.6S498.764,426.7,683.48,426.7Z" transform="translate(-511.11 -426.7)" fill="#f7b617"/>
        </g>
        <g id="XMLID_709_" transform="translate(104.905 423.187)">
          <path id="XMLID_827_" d="M778.008,1048.989H669.921a13.4,13.4,0,0,1-13.421-13.421v-8.947a13.4,13.4,0,0,1,13.421-13.421h108.16a13.4,13.4,0,0,1,13.421,13.421v8.947A13.5,13.5,0,0,1,778.008,1048.989Z" transform="translate(-656.5 -1013.2)" fill="#c9c9c9"/>
        </g>
        <g id="XMLID_708_" transform="translate(104.905 458.976)">
          <path id="XMLID_826_" d="M778.008,1098.589H669.921a13.4,13.4,0,0,1-13.421-13.421v-8.947a13.4,13.4,0,0,1,13.421-13.421h108.16a13.4,13.4,0,0,1,13.421,13.421v8.947A13.55,13.55,0,0,1,778.008,1098.589Z" transform="translate(-656.5 -1062.8)" fill="#c9c9c9"/>
        </g>
        <g id="XMLID_705_" transform="translate(122.872 494.692)">
          <path id="XMLID_825_" d="M748.287,1148.089h-31.1A35.782,35.782,0,0,1,681.4,1112.3H784A35.675,35.675,0,0,1,748.287,1148.089Z" transform="translate(-681.4 -1112.3)" fill="#999"/>
        </g>
      </g>
      <g id="XMLID_699_" transform="translate(138.053 138.76)">
        <g id="XMLID_703_">
          <path id="XMLID_821_" d="M737.685,853.625H624.547a30.425,30.425,0,0,1-30.377-30.377v-25.11c-1.082-4.834-11.4-47.261-61.981-113.5-16.018-21-26.336-50.292-28.934-82.473-2.742-33.768,3.463-67.9,17.389-96.182a147.587,147.587,0,0,1,57.579-62.558C606.364,426.614,641,418.1,681.116,418.1s74.752,8.514,102.892,25.326a148.038,148.038,0,0,1,57.579,62.558c14,28.285,20.2,62.486,17.389,96.182-2.6,32.181-12.916,61.476-28.934,82.473-50.8,66.6-60.9,108.665-61.981,113.5v25.11A30.378,30.378,0,0,1,737.685,853.625ZM681.116,430.438c-90.338,0-131.177,44.086-149.432,81.03C503.039,569.336,514.439,641.2,541.93,677.279c55.631,72.876,64.073,117.4,64.362,119.2a5.467,5.467,0,0,1,.072,1.082v25.687a18.169,18.169,0,0,0,18.111,18.111H737.613a18.169,18.169,0,0,0,18.111-18.111V797.561a5.462,5.462,0,0,1,.072-1.082c.361-1.876,8.8-46.4,64.362-119.2C847.649,641.2,859.049,569.336,830.4,511.468,812.293,474.453,771.454,430.438,681.116,430.438Z" transform="translate(-502.62 -418.1)" fill="#8e101a"/>
        </g>
        <g id="XMLID_702_" transform="translate(104.898 423.259)">
          <path id="XMLID_818_" d="M775.642,1052.755H667.554A19.616,19.616,0,0,1,648,1033.2v-8.947a19.616,19.616,0,0,1,19.554-19.554h108.16a19.616,19.616,0,0,1,19.554,19.554v8.947A19.631,19.631,0,0,1,775.642,1052.755Zm-108.088-35.789a7.267,7.267,0,0,0-7.288,7.288v8.947a7.268,7.268,0,0,0,7.288,7.288h108.16A7.268,7.268,0,0,0,783,1033.2v-8.947a7.267,7.267,0,0,0-7.288-7.288H667.554Z" transform="translate(-648 -1004.7)" fill="#8e101a"/>
        </g>
        <g id="XMLID_701_" transform="translate(104.898 459.048)">
          <path id="XMLID_815_" d="M775.642,1102.355H667.554A19.616,19.616,0,0,1,648,1082.8v-8.947a19.616,19.616,0,0,1,19.554-19.554h108.16a19.616,19.616,0,0,1,19.554,19.554v8.947A19.678,19.678,0,0,1,775.642,1102.355Zm-108.088-35.789a7.268,7.268,0,0,0-7.288,7.288v8.947a7.267,7.267,0,0,0,7.288,7.288h108.16A7.267,7.267,0,0,0,783,1082.8v-8.947a7.268,7.268,0,0,0-7.288-7.288Z" transform="translate(-648 -1054.3)" fill="#8e101a"/>
        </g>
        <g id="XMLID_700_" transform="translate(122.865 494.764)">
          <path id="XMLID_812_" d="M745.92,1151.855h-31.1a41.957,41.957,0,0,1-41.922-41.922,6.128,6.128,0,0,1,6.133-6.133h102.6a6.128,6.128,0,0,1,6.133,6.133A41.849,41.849,0,0,1,745.92,1151.855Zm-60.1-35.717a29.647,29.647,0,0,0,29.006,23.522h31.1a29.707,29.707,0,0,0,29.006-23.522Z" transform="translate(-672.9 -1103.8)" fill="#8e101a"/>
        </g>
      </g>
      <g id="XMLID_706_" transform="translate(186.351 185.574)">
        <g id="XMLID_753_" transform="translate(23.77 163.327)">
          <path id="XMLID_824_" d="M602.5,722.154s4.113,14.864,13.926,18.327,7.793,19.626,1.443,31.459,2.309,15.3,13.276,2.02,12.122-22.8,32.037-25.11S688,726.627,688,726.627C661.667,704.765,633.094,704.043,602.5,722.154Z" transform="translate(-602.5 -709.337)" fill="#b6ecff"/>
        </g>
        <g id="XMLID_752_" transform="translate(6.028 6.171)">
          <path id="XMLID_165_" d="M773.154,616.7s14.142,8.514,33.624,0,11.906-37.232,11.906-37.232,9.669-27.563-4.257-43S789.1,520.588,789.1,520.588s-8.947-20.42-32.686-20.2c0,0-40.334-19.915-86.73,0s-58.734,43-58.734,43-19.7,9.164-28.934,33.408,0,46.4,0,46.4-8.731,17.028,4.041,31.6,41.489,10.968,52.889-2.02c0,0,5.628,10.968,30.016,6.277,0,0,5.051,8.37,23.378,7.721s22.873-9.38,22.873-9.38,9.6,13.276,33.624,7.576C772.793,659.2,779.359,628.314,773.154,616.7Z" transform="translate(-577.911 -491.533)" fill="#b6ecff"/>
        </g>
        <g id="XMLID_751_">
          <path id="XMLID_809_" d="M687.922,670.6c-12.844,0-19.987-4.113-23.522-7.288-14.647,2.165-23.162-1.01-28-4.4-7.5,5.7-17.966,9.091-28.79,9.091h0c-11.833,0-21.935-4.113-28.429-11.545-12.266-14-8.3-29.728-5.989-35.789-2.237-6.927-7.36-26.841.866-48.416a70.307,70.307,0,0,1,30.3-35.861c3.969-6.061,19.626-26.409,60.61-44.014,44.231-18.977,82.761-3.9,90.482-.505,20.853.433,31.532,14.431,35.356,20.781,5.2,1.3,15.008,5.2,25.9,17.317,14.07,15.73,8.081,40.551,6.061,47.406a61.031,61.031,0,0,1,1.154,15.513c-.866,13.2-6.71,22.584-16.884,26.986a48.035,48.035,0,0,1-27.78,3.608,48.925,48.925,0,0,1-4.4,21.646c-5.484,12.266-15.008,20.492-26.841,23.306-17.606,4.185-28.862-.721-34.779-4.979-4.185,3.175-11.256,6.566-22.873,7C689.437,670.524,688.643,670.6,687.922,670.6Zm-16.091-17.173c.649.794,4.907,5.339,17.967,4.834s17.1-5.412,17.678-6.205a5.72,5.72,0,0,1,4.834-3.463,5.887,5.887,0,0,1,5.484,2.814c.649.794,8.37,9.741,27.274,5.2,10.823-2.6,16.235-11.4,18.472-16.451,4.041-9.019,4.113-18.76,1.876-22.945a6.146,6.146,0,0,1,8.514-8.226c.577.361,11.978,6.638,28-.361,14.431-6.277,8.442-29.8,8.37-30.016a6.162,6.162,0,0,1,.144-3.608c.072-.216,8.226-24.388-3.031-36.871-11.184-12.411-20.275-13.781-21.069-13.854a5.841,5.841,0,0,1-5.339-3.68c-.289-.649-7.721-16.523-26.7-16.523h-.289a5.907,5.907,0,0,1-2.742-.649c-.361-.216-38.531-18.4-81.607.144-43.87,18.9-55.631,40.046-55.7,40.262a6.3,6.3,0,0,1-2.814,2.67,57.635,57.635,0,0,0-25.759,30.016c-8.154,21.5-.144,41.705-.072,41.85a6.337,6.337,0,0,1-.216,5.123c-.289.505-6.566,13.637,3.175,24.749,4.113,4.762,10.968,7.36,19.265,7.36h0c9.669,0,19.482-3.752,24.388-9.38a6.216,6.216,0,0,1,5.556-2.237,5.756,5.756,0,0,1,4.474,3.391c.649.866,5.917,6.566,23.45,3.175C668.151,650.1,670.6,650.971,671.831,653.424Z" transform="translate(-569.557 -482.981)" fill="#8e101a"/>
        </g>
        <g id="XMLID_750_" transform="translate(17.853 174.556)">
          <path id="XMLID_808_" d="M616.668,793.086a9.447,9.447,0,0,1-5.339-1.587c-1.876-1.227-7.5-6.277-1.227-18.039,4.041-7.5,5.7-16.163,3.969-20.636a3.145,3.145,0,0,0-2.02-2.165c-12.483-4.4-17.245-20.708-17.75-22.512l11.833-3.247c.866,3.1,4.546,12.266,10.029,14.214a15.192,15.192,0,0,1,9.38,9.308c3.319,8.514.577,19.843-3.175,28.068a16.748,16.748,0,0,0,1.732-2.02c2.381-2.886,4.257-5.556,6.133-8.226,6.422-9.164,11.906-17.028,29.944-19.121,15.3-1.8,19.41-16.956,19.554-17.606l11.906,2.958c-.216,1.01-6.205,24.027-30.089,26.841-12.555,1.443-15.513,5.628-21.358,13.926-1.876,2.67-3.969,5.7-6.71,8.947C627.708,789.334,621.719,793.086,616.668,793.086Z" transform="translate(-594.3 -724.9)" fill="#8e101a"/>
        </g>
        <g id="XMLID_749_" transform="translate(28.821 184.15)">
          <path id="XMLID_807_" d="M625.374,755.588a28.477,28.477,0,0,1-12.483-2.814,6.131,6.131,0,1,1,5.484-10.968c9.38,4.618,21.286-2.6,21.43-2.67a6.126,6.126,0,0,1,6.494,10.39C645.722,749.816,636.414,755.588,625.374,755.588Z" transform="translate(-609.5 -738.196)" fill="#8e101a"/>
        </g>
        <g id="XMLID_748_" transform="translate(4 117.586)">
          <path id="XMLID_806_" d="M581.233,672.321a6.135,6.135,0,0,1-5.484-8.875c.289-.577,7.36-14.431,23.162-17.389a6.128,6.128,0,0,1,2.237,12.05c-9.741,1.876-14.431,10.751-14.5,10.9A5.994,5.994,0,0,1,581.233,672.321Z" transform="translate(-575.1 -645.944)" fill="#8e101a"/>
        </g>
        <g id="XMLID_746_" transform="translate(98.992 109.234)">
          <path id="XMLID_805_" d="M732.546,664.191c-7.071,0-18.76-1.443-24.749-10.174a6.124,6.124,0,1,1,10.1-6.927c3.319,4.834,13.926,5.2,18.544,4.618.144,0,.361-.072.505-.072,5.7-.216,10.39-3.319,15.73-6.927,7.143-4.762,15.946-10.751,29.295-10.318,24.533.794,32.253,18.9,32.614,19.7l-11.328,4.69v.072c-.216-.505-5.267-11.617-21.646-12.194-9.38-.289-15.513,3.824-22.079,8.226-6.277,4.185-12.771,8.586-21.791,9.019A35.33,35.33,0,0,1,732.546,664.191Z" transform="translate(-706.752 -634.369)" fill="#8e101a"/>
        </g>
        <g id="XMLID_745_" transform="translate(32.472 51.967)">
          <path id="XMLID_804_" d="M646.12,593.1a51.058,51.058,0,0,1-9.957-1.082c-7.865-1.66-13.781-5.484-17.461-11.256-5.917-9.236-3.824-19.77-3.608-20.925a6.128,6.128,0,0,1,11.978,2.6c-.505,2.453-2.237,14.575,11.617,17.606,11.617,2.525,18.616-1.154,25.976-4.979,4.113-2.165,8.3-4.329,13.132-5.2a6.115,6.115,0,1,1,2.092,12.05c-2.886.505-5.989,2.093-9.524,3.969C664.159,589.2,656.655,593.1,646.12,593.1Z" transform="translate(-614.56 -555.003)" fill="#8e101a"/>
        </g>
        <g id="XMLID_744_" transform="translate(218.204 70.702)">
          <path id="XMLID_803_" d="M894.431,605.019c-.144-1.082-1.732-10.318-16.884-11.761a6.16,6.16,0,1,1,1.154-12.266c20.708,1.948,27.347,15.8,27.924,22.8l-12.194,1.082Z" transform="translate(-871.968 -580.968)" fill="#8e101a"/>
        </g>
        <g id="XMLID_743_" transform="translate(149.963 117.77)">
          <path id="XMLID_802_" d="M799.189,674.34a6.094,6.094,0,0,1-3.319-.938c-.866-.505-1.8-1.082-2.814-1.587-16.091-7.937-16.812-20.2-14.936-25.615l11.617,3.969a.559.559,0,0,1,.072-.216c-.144.577-1.227,5.917,8.731,10.823a42.327,42.327,0,0,1,4.041,2.237,6.1,6.1,0,0,1,1.876,8.442A6.4,6.4,0,0,1,799.189,674.34Z" transform="translate(-777.393 -646.2)" fill="#8e101a"/>
        </g>
        <g id="XMLID_741_" transform="translate(165.324 27.106)">
          <path id="XMLID_801_" d="M804.828,563.012a6.14,6.14,0,0,1-.433-12.266c1.948-.144,3.1-1.732,6.205-7.648a73.524,73.524,0,0,1,8.586-13.637c12.122-14.72,32.758-6.855,33.624-6.494a6.123,6.123,0,1,1-4.474,11.4c-.216-.072-13.349-4.906-19.7,2.886a63.192,63.192,0,0,0-7.215,11.473c-3.463,6.71-7.071,13.565-16.163,14.214A.915.915,0,0,1,804.828,563.012Z" transform="translate(-798.682 -520.547)" fill="#8e101a"/>
        </g>
        <g id="XMLID_740_" transform="translate(178.902 46.626)">
          <path id="XMLID_800_" d="M836.982,563.763c-12.627,0-18.255-8.226-19.482-12.916l11.906-3.1a.223.223,0,0,0-.072-.144c.289.794,1.948,4.69,9.885,3.752a6.135,6.135,0,1,1,1.371,12.194A32.141,32.141,0,0,1,836.982,563.763Z" transform="translate(-817.5 -547.6)" fill="#8e101a"/>
        </g>
        <g id="XMLID_739_" transform="translate(63.17 79.168)">
          <path id="XMLID_799_" d="M663.234,618.531a6.133,6.133,0,0,1-4.618-10.174c3.9-4.474,2.525-7.215,2.02-8.009l.144.144,9.452-7.793c3.1,3.752,6.566,13.493-2.309,23.739A6.54,6.54,0,0,1,663.234,618.531Z" transform="translate(-657.105 -592.7)" fill="#8e101a"/>
        </g>
        <g id="XMLID_738_" transform="translate(151.451 8.886)">
          <path id="XMLID_798_" d="M792.042,518.749a31.5,31.5,0,0,1-7.937-1.01,6.134,6.134,0,0,1,2.958-11.906,18.384,18.384,0,0,0,20.2-7.648,6.126,6.126,0,0,1,10.39,6.494C814.338,510.091,805.175,518.749,792.042,518.749Z" transform="translate(-779.455 -495.296)" fill="#8e101a"/>
        </g>
        <g id="XMLID_712_" transform="translate(132.451 76.947)">
          <path id="XMLID_797_" d="M776.484,609.232c-8.514,0-16.379-2.092-22.151-9.813a6.133,6.133,0,1,1,9.813-7.36c4.618,6.205,12.555,5.412,26.192,3.536,6.277-.866,13.349-1.876,20.564-1.66a6.135,6.135,0,0,1-.289,12.266A113.716,113.716,0,0,0,792,607.789,117.09,117.09,0,0,1,776.484,609.232Z" transform="translate(-753.123 -589.623)" fill="#8e101a"/>
        </g>
        <g id="XMLID_736_" transform="translate(122.082 83.07)">
          <path id="XMLID_796_" d="M744.992,630.788a6.081,6.081,0,0,1-6.061-5.339c-2.02-15.874,13.493-24.533,22.945-27.13a6.222,6.222,0,0,1,7.576,4.257,6.112,6.112,0,0,1-4.257,7.5c-.289.072-15.3,4.474-14.07,13.709a6.11,6.11,0,0,1-5.267,6.855A1.981,1.981,0,0,1,744.992,630.788Z" transform="translate(-738.751 -598.108)" fill="#8e101a"/>
        </g>
        <g id="XMLID_735_" transform="translate(73.677 17.595)">
          <path id="XMLID_795_" d="M722.848,553.93h-.216a6.179,6.179,0,0,1-5.917-6.35c.072-2.309-.505-9.019-4.041-12.411-1.876-1.8-4.474-2.525-8.009-2.309-1.01.072-2.02.072-2.958.072-21.141,0-29.151-16.09-29.439-16.812a6.116,6.116,0,0,1,11.04-5.267c.216.361,5.7,10.751,20.564,9.741,8.875-.649,14.359,2.814,17.389,5.772,8.081,7.793,7.793,20.275,7.72,21.646A6.13,6.13,0,0,1,722.848,553.93Z" transform="translate(-671.666 -507.366)" fill="#8e101a"/>
        </g>
        <g id="XMLID_734_" transform="translate(110.257 28.545)">
          <path id="XMLID_794_" d="M758.972,539.179a6.193,6.193,0,0,1-4.257-1.732c-5.844-5.556-19.337-.938-23.594,1.082a6.132,6.132,0,0,1-5.339-11.04c1.01-.505,24.244-11.545,37.448,1.082a6.142,6.142,0,0,1,.217,8.659A6.313,6.313,0,0,1,758.972,539.179Z" transform="translate(-722.364 -522.541)" fill="#8e101a"/>
        </g>
        <g id="XMLID_733_" transform="translate(55.14 133.554)">
          <path id="XMLID_793_" d="M657.9,708.067a6.705,6.705,0,0,1-2.093-.361,6.12,6.12,0,0,1-3.608-7.865c.072-.289,5.051-14.575-3.608-20.636a6.115,6.115,0,1,1,7-10.029c16.451,11.545,8.37,33.985,8.081,34.923A6.218,6.218,0,0,1,657.9,708.067Z" transform="translate(-645.975 -668.075)" fill="#8e101a"/>
        </g>
        <g id="XMLID_732_" transform="translate(71.747 102.185)">
          <path id="XMLID_792_" d="M675.131,647.112a6.135,6.135,0,0,1-.216-12.266c11.689-.433,14.5-9.236,14.792-10.246l5.917,1.587,5.917,1.515c-1.66,6.422-9.236,18.688-26.192,19.41Z" transform="translate(-668.992 -624.6)" fill="#8e101a"/>
        </g>
        <g id="XMLID_707_" transform="translate(137.116 151.379)">
          <path id="XMLID_791_" d="M765.73,719.563a6.608,6.608,0,0,1-3.391-1.01,6.073,6.073,0,0,1-1.732-8.442c.072-.144,3.1-5.123,1.587-9.091a6.118,6.118,0,0,1,11.473-4.257c3.68,9.813-2.165,19.121-2.814,20.131A6.294,6.294,0,0,1,765.73,719.563Z" transform="translate(-759.588 -692.779)" fill="#8e101a"/>
        </g>
      </g>
      <g id="XMLID_2_" transform="translate(294.87)">
        <path id="XMLID_790_" d="M734.923,346.512a6.25,6.25,0,0,1-2.309-.433,6.134,6.134,0,0,1-3.319-8.009l18.9-46.107H726.121a6.287,6.287,0,0,1-5.051-2.6,6.037,6.037,0,0,1-.722-5.628l19.77-53.9a6.14,6.14,0,0,1,11.545,4.185L734.924,279.7h22.44a6.178,6.178,0,0,1,5.123,2.742,6.091,6.091,0,0,1,.577,5.772L740.7,342.76A6.47,6.47,0,0,1,734.923,346.512Z" transform="translate(-719.955 -225.791)" fill="#fff"/>
      </g>
      <g id="XMLID_134_" transform="translate(0 87.952)">
        <g id="XMLID_143_" transform="translate(94.819 0.084)">
          <path id="XMLID_789_" d="M517.885,444.415a6.114,6.114,0,0,1-5.628-3.752L492.992,394.7l-15.658,15.658a6.305,6.305,0,0,1-5.412,1.732,6.12,6.12,0,0,1-4.474-3.463l-24.172-52.1a6.133,6.133,0,0,1,11.112-5.2l20.42,44.086,15.874-15.874a6.078,6.078,0,0,1,5.556-1.66,5.954,5.954,0,0,1,4.474,3.68l22.8,54.4a6.1,6.1,0,0,1-3.319,8.009A6.251,6.251,0,0,1,517.885,444.415Z" transform="translate(-442.701 -347.801)" fill="#fff"/>
        </g>
        <g id="XMLID_157_" transform="translate(0 207.849)">
          <path id="XMLID_788_" d="M371.33,679.294a6.7,6.7,0,0,1-2.092-.361l-53.9-19.77a6.14,6.14,0,0,1,4.185-11.545l45.674,16.74v-22.44a6.178,6.178,0,0,1,2.742-5.123,6.091,6.091,0,0,1,5.772-.577l54.549,22.368a6.13,6.13,0,1,1-4.69,11.328l-46.107-18.832v22.079a6.287,6.287,0,0,1-2.6,5.051A6.029,6.029,0,0,1,371.33,679.294Z" transform="translate(-311.291 -635.746)" fill="#fff"/>
        </g>
        <g id="XMLID_160_" transform="translate(88.108 372.502)">
          <path id="XMLID_787_" d="M439.534,945.23a6.078,6.078,0,0,1-5.556-3.536,6.15,6.15,0,0,1,2.958-8.154l44.086-20.42-15.874-15.874a6.078,6.078,0,0,1-1.66-5.556,5.954,5.954,0,0,1,3.68-4.474l54.4-22.8a6.13,6.13,0,0,1,4.69,11.328L480.3,895.01l15.658,15.658a6.306,6.306,0,0,1,1.732,5.412,6.12,6.12,0,0,1-3.463,4.474l-52.1,24.172A6.655,6.655,0,0,1,439.534,945.23Z" transform="translate(-433.401 -863.941)" fill="#fff"/>
        </g>
        <g id="XMLID_163_" transform="translate(456.929)">
          <path id="XMLID_786_" d="M950.72,444.383a5.66,5.66,0,0,1-2.381-.505,6.159,6.159,0,0,1-3.319-8.009l22.8-54.4a6.261,6.261,0,0,1,4.474-3.68,6.335,6.335,0,0,1,5.556,1.66l15.874,15.874,20.42-44.086a6.133,6.133,0,1,1,11.112,5.2l-24.1,52.1a6.254,6.254,0,0,1-4.474,3.463,6.1,6.1,0,0,1-5.412-1.732L975.614,394.6l-19.193,46.035A6.173,6.173,0,0,1,950.72,444.383Z" transform="translate(-944.554 -347.685)" fill="#fff"/>
        </g>
        <g id="XMLID_162_" transform="translate(512.344 207.921)">
          <path id="XMLID_785_" d="M1082.069,679.322a6.36,6.36,0,0,1-3.536-1.082,6.1,6.1,0,0,1-2.6-5.051V651.109l-46.107,18.9a6.13,6.13,0,0,1-4.69-11.328l54.549-22.368a6.17,6.17,0,0,1,8.514,5.7v22.44l45.674-16.74a6.14,6.14,0,0,1,4.185,11.545l-53.9,19.77A7.3,7.3,0,0,1,1082.069,679.322Z" transform="translate(-1021.354 -635.846)" fill="#fff"/>
        </g>
        <g id="XMLID_161_" transform="translate(448.342 372.44)">
          <path id="XMLID_784_" d="M1023.169,945.206a6.765,6.765,0,0,1-2.6-.577l-52.1-24.172a6.254,6.254,0,0,1-3.463-4.474,6.1,6.1,0,0,1,1.732-5.412L982.4,894.914l-45.963-19.265a6.13,6.13,0,0,1,4.69-11.328l54.4,22.8a6.261,6.261,0,0,1,3.68,4.474,6.335,6.335,0,0,1-1.66,5.556L981.68,913.025l44.087,20.42a6.089,6.089,0,0,1,2.958,8.154A6.027,6.027,0,0,1,1023.169,945.206Z" transform="translate(-932.654 -863.854)" fill="#fff"/>
        </g>
      </g>
    </g>
    <path id="XMLID_276_" d="M918.5,728.4c-2.453-2.453-7.721-3.031-10.1,0a208.875,208.875,0,0,0-24.028,37.881c-1.66,3.463-.938,7.721,2.6,9.813,3.175,1.8,8.081.938,9.813-2.6a189.018,189.018,0,0,1,21.791-34.995C920.882,735.475,921.459,731.363,918.5,728.4Z" transform="translate(-220.198 -183.118)" fill="#fff"/>
    <path id="XMLID_277_" d="M877.027,807c-9.236,0-9.236,14.287,0,14.287C886.191,821.287,886.263,807,877.027,807Z" transform="translate(-216.461 -205.578)" fill="#fff"/>
    <path id="XMLID_278_" d="M601.627,512.3c-9.236,0-9.236,14.287,0,14.287S610.863,512.3,601.627,512.3Z" transform="translate(-139.774 -123.517)" fill="#fff"/>
    <path id="XMLID_279_" d="M673.987,887.748a77.721,77.721,0,0,0-10.318-23.811c-5.051-7.648-17.461-.505-12.338,7.215a64.374,64.374,0,0,1,8.875,20.42C662.37,900.519,676.224,896.767,673.987,887.748Z" transform="translate(-155.205 -220.52)" fill="#fff"/>
    <path id="XMLID_280_" d="M690.327,1079.1c-9.236,0-9.236,14.287,0,14.287C699.563,1093.459,699.563,1079.1,690.327,1079.1Z" transform="translate(-164.473 -281.345)" fill="#fff"/>
    <path id="XMLID_281_" d="M691.327,1027.6c-9.236,0-9.236,14.287,0,14.287C700.563,1041.959,700.563,1027.6,691.327,1027.6Z" transform="translate(-164.752 -267.005)" fill="#fff"/>
    <path id="XMLID_282_" d="M569.708,539.118l-8.659,16.235c-4.329,8.153,8.009,15.369,12.338,7.215l8.659-16.235C586.376,538.18,574.038,530.964,569.708,539.118Z" transform="translate(-130.152 -129.987)" fill="#fff"/>
  </g>
</svg>
