<svg xmlns="http://www.w3.org/2000/svg" xmlns:xlink="http://www.w3.org/1999/xlink" width="414" height="736" viewBox="0 0 414 736">
  <defs>
    <linearGradient id="linear-gradient" x1="0.047" y1="0.389" x2="1" y2="0.419" gradientUnits="objectBoundingBox">
      <stop offset="0" stop-color="#250189" stop-opacity="0.729"/>
      <stop offset="0" stop-color="#2b0085" stop-opacity="0.471"/>
      <stop offset="0" stop-color="#2b0084"/>
      <stop offset="0" stop-color="#29008b"/>
      <stop offset="0" stop-color="#23019c"/>
      <stop offset="1" stop-color="#2f76d8" stop-opacity="0.729"/>
      <stop offset="1" stop-color="#611212"/>
    </linearGradient>
    <clipPath id="clip-footer1">
      <rect width="414" height="736"/>
    </clipPath>
  </defs>
  <g id="footer1" clip-path="url(#clip-footer1)">
    <rect width="414" height="736" fill="#fff"/>
    <path id="grey1" d="M60.373,0l-.64.214L0,44.723l22.692,70.192H98.438l23.331-70.192L61,.147Z" transform="translate(93.585 118.449) rotate(141)" fill="rgba(132,130,139,0.09)" stroke="#fff" stroke-width="1"/>
    <path id="grey1-2" data-name="grey1" d="M60.373,0l-.64.214L0,44.723l22.692,70.192H98.438l23.331-70.192L61,.147Z" transform="matrix(-1, -0.017, 0.017, -1, 47.982, 586.624)" fill="rgba(132,130,139,0.09)" stroke="#fff" stroke-width="1"/>
    <path id="Path_10" data-name="Path 10" d="M348,0l-3.691,1.271L0,265.677,130.8,682.651h436.61L701.892,265.677Z" transform="translate(303.493 941.817) rotate(-150)" stroke="#fff" stroke-width="1" fill="url(#linear-gradient)"/>
    <path id="grey1-3" data-name="grey1" d="M114.879,0,113.66.407,0,85.1,43.178,218.661h144.13L231.7,85.1,116.065.28Z" transform="translate(524.874 41.075) rotate(141)" fill="rgba(132,130,139,0.37)" stroke="#fff" stroke-width="1"/>
  </g>
</svg>
