<svg xmlns="http://www.w3.org/2000/svg" xmlns:xlink="http://www.w3.org/1999/xlink" width="614.35" height="559.9" viewBox="0 0 614.35 559.9">
  <defs>
    <linearGradient id="linear-gradient" x1="0.5" y1="-0.027" x2="0.5" y2="0.977" gradientUnits="objectBoundingBox">
      <stop offset="0" stop-color="#fff"/>
      <stop offset="0.575" stop-color="#d6d6d6"/>
      <stop offset="1" stop-color="#f6f6f7"/>
    </linearGradient>
    <linearGradient id="linear-gradient-2" x1="0.5" y1="-0.051" x2="0.5" y2="0.921" gradientUnits="objectBoundingBox">
      <stop offset="0" stop-color="#121212"/>
      <stop offset="1" stop-color="#434345"/>
    </linearGradient>
    <linearGradient id="linear-gradient-3" x1="1.791" y1="1.648" x2="-0.546" y2="-0.43" gradientUnits="objectBoundingBox">
      <stop offset="0" stop-color="#00416c"/>
      <stop offset="1" stop-color="#5bd9a7"/>
    </linearGradient>
    <linearGradient id="linear-gradient-4" x1="0.5" y1="2.687" x2="0.5" y2="-2.089" xlink:href="#linear-gradient"/>
    <linearGradient id="linear-gradient-5" x1="0.497" y1="22.577" x2="0.497" y2="-1.404" xlink:href="#linear-gradient-2"/>
    <linearGradient id="linear-gradient-6" x1="0.496" y1="22.577" x2="0.496" y2="-1.404" xlink:href="#linear-gradient-2"/>
    <linearGradient id="linear-gradient-7" x1="0.496" y1="22.577" x2="0.496" y2="-1.404" xlink:href="#linear-gradient-2"/>
    <linearGradient id="linear-gradient-8" x1="0.496" y1="22.577" x2="0.496" y2="-1.404" xlink:href="#linear-gradient-2"/>
    <linearGradient id="linear-gradient-9" x1="0.498" y1="22.577" x2="0.498" y2="-1.404" xlink:href="#linear-gradient-2"/>
    <linearGradient id="linear-gradient-10" x1="0.499" y1="22.577" x2="0.499" y2="-1.404" xlink:href="#linear-gradient-2"/>
    <linearGradient id="linear-gradient-11" x1="0.497" y1="22.577" x2="0.497" y2="-1.404" xlink:href="#linear-gradient-2"/>
    <linearGradient id="linear-gradient-13" x1="0.499" y1="22.577" x2="0.499" y2="-1.404" xlink:href="#linear-gradient-2"/>
    <linearGradient id="linear-gradient-14" x1="0.496" y1="22.577" x2="0.496" y2="-1.404" xlink:href="#linear-gradient-2"/>
    <linearGradient id="linear-gradient-15" x1="0.496" y1="22.577" x2="0.496" y2="-1.404" xlink:href="#linear-gradient-2"/>
    <linearGradient id="linear-gradient-16" x1="0.498" y1="22.577" x2="0.498" y2="-1.404" xlink:href="#linear-gradient-2"/>
    <linearGradient id="linear-gradient-17" x1="0.495" y1="22.577" x2="0.495" y2="-1.404" xlink:href="#linear-gradient-2"/>
    <linearGradient id="linear-gradient-18" x1="0.497" y1="22.577" x2="0.497" y2="-1.404" xlink:href="#linear-gradient-2"/>
    <linearGradient id="linear-gradient-19" x1="0.499" y1="13.987" x2="0.499" y2="-1.664" xlink:href="#linear-gradient-2"/>
    <linearGradient id="linear-gradient-20" x1="0.5" y1="12.3" x2="0.5" y2="-2.718" xlink:href="#linear-gradient-2"/>
    <linearGradient id="linear-gradient-21" x1="0.499" y1="10.697" x2="0.499" y2="-3.739" xlink:href="#linear-gradient-2"/>
    <linearGradient id="linear-gradient-22" x1="0.502" y1="9.09" x2="0.502" y2="-4.677" xlink:href="#linear-gradient-2"/>
    <linearGradient id="linear-gradient-23" x1="0.502" y1="6.693" x2="0.502" y2="-4.922" xlink:href="#linear-gradient-2"/>
    <linearGradient id="linear-gradient-24" x1="0.502" y1="6.693" x2="0.502" y2="-4.922" xlink:href="#linear-gradient-2"/>
    <linearGradient id="linear-gradient-25" x1="0.502" y1="6.693" x2="0.502" y2="-4.922" xlink:href="#linear-gradient-2"/>
    <linearGradient id="linear-gradient-26" x1="0.502" y1="6.693" x2="0.502" y2="-4.922" xlink:href="#linear-gradient-2"/>
    <linearGradient id="linear-gradient-27" x1="0.501" y1="6.693" x2="0.501" y2="-4.922" xlink:href="#linear-gradient-2"/>
    <linearGradient id="linear-gradient-28" x1="0.5" y1="6.693" x2="0.5" y2="-4.922" xlink:href="#linear-gradient-2"/>
    <linearGradient id="linear-gradient-29" x1="0.5" y1="6.693" x2="0.5" y2="-4.922" xlink:href="#linear-gradient-2"/>
    <linearGradient id="linear-gradient-30" x1="0.498" y1="9.09" x2="0.498" y2="-4.677" xlink:href="#linear-gradient-2"/>
    <linearGradient id="linear-gradient-31" x1="0.501" y1="9.09" x2="0.501" y2="-4.677" xlink:href="#linear-gradient-2"/>
    <linearGradient id="linear-gradient-32" x1="0.498" y1="9.09" x2="0.498" y2="-4.677" xlink:href="#linear-gradient-2"/>
    <linearGradient id="linear-gradient-33" x1="0.502" y1="9.09" x2="0.502" y2="-4.677" xlink:href="#linear-gradient-2"/>
    <linearGradient id="linear-gradient-34" x1="0.504" y1="9.09" x2="0.504" y2="-4.677" xlink:href="#linear-gradient-2"/>
    <linearGradient id="linear-gradient-35" x1="0.5" y1="9.09" x2="0.5" y2="-4.677" xlink:href="#linear-gradient-2"/>
    <linearGradient id="linear-gradient-36" x1="0.499" y1="9.09" x2="0.499" y2="-4.677" xlink:href="#linear-gradient-2"/>
    <linearGradient id="linear-gradient-37" x1="0.501" y1="9.09" x2="0.501" y2="-4.677" xlink:href="#linear-gradient-2"/>
    <linearGradient id="linear-gradient-38" x1="0.499" y1="11.847" x2="0.499" y2="-10.344" xlink:href="#linear-gradient-2"/>
    <linearGradient id="linear-gradient-39" x1="0.501" y1="11.847" x2="0.501" y2="-10.344" xlink:href="#linear-gradient-2"/>
    <linearGradient id="linear-gradient-40" x1="0.501" y1="13.335" x2="0.501" y2="-9.54" xlink:href="#linear-gradient-2"/>
    <linearGradient id="linear-gradient-41" x1="0.502" y1="11.847" x2="0.502" y2="-10.344" xlink:href="#linear-gradient-2"/>
    <linearGradient id="linear-gradient-42" x1="0.499" y1="10.697" x2="0.499" y2="-3.739" xlink:href="#linear-gradient-2"/>
    <linearGradient id="linear-gradient-44" x1="0.498" y1="10.697" x2="0.498" y2="-3.739" xlink:href="#linear-gradient-2"/>
    <linearGradient id="linear-gradient-45" x1="0.499" y1="10.697" x2="0.499" y2="-3.739" xlink:href="#linear-gradient-2"/>
    <linearGradient id="linear-gradient-46" x1="0.499" y1="10.697" x2="0.499" y2="-3.739" xlink:href="#linear-gradient-2"/>
    <linearGradient id="linear-gradient-47" x1="0.497" y1="10.697" x2="0.497" y2="-3.739" xlink:href="#linear-gradient-2"/>
    <linearGradient id="linear-gradient-49" x1="0.497" y1="10.697" x2="0.497" y2="-3.739" xlink:href="#linear-gradient-2"/>
    <linearGradient id="linear-gradient-50" x1="0.498" y1="10.697" x2="0.498" y2="-3.739" xlink:href="#linear-gradient-2"/>
    <linearGradient id="linear-gradient-51" x1="0.499" y1="10.697" x2="0.499" y2="-3.739" xlink:href="#linear-gradient-2"/>
    <linearGradient id="linear-gradient-52" x1="0.503" y1="9.09" x2="0.503" y2="-4.677" xlink:href="#linear-gradient-2"/>
    <linearGradient id="linear-gradient-53" x1="0.497" y1="10.603" x2="0.497" y2="-3.693" xlink:href="#linear-gradient-2"/>
    <linearGradient id="linear-gradient-54" x1="0.5" y1="9.09" x2="0.5" y2="-4.677" xlink:href="#linear-gradient-2"/>
    <linearGradient id="linear-gradient-55" x1="0.5" y1="10.603" x2="0.5" y2="-3.693" xlink:href="#linear-gradient-2"/>
    <linearGradient id="linear-gradient-56" x1="0.499" y1="9.09" x2="0.499" y2="-4.677" xlink:href="#linear-gradient-2"/>
    <linearGradient id="linear-gradient-57" x1="0.499" y1="12.3" x2="0.499" y2="-2.718" xlink:href="#linear-gradient-2"/>
    <linearGradient id="linear-gradient-58" x1="0.499" y1="12.3" x2="0.499" y2="-2.718" xlink:href="#linear-gradient-2"/>
    <linearGradient id="linear-gradient-59" x1="0.497" y1="12.3" x2="0.497" y2="-2.718" xlink:href="#linear-gradient-2"/>
    <linearGradient id="linear-gradient-60" x1="0.5" y1="12.3" x2="0.5" y2="-2.718" xlink:href="#linear-gradient-2"/>
    <linearGradient id="linear-gradient-61" x1="0.501" y1="12.3" x2="0.501" y2="-2.718" xlink:href="#linear-gradient-2"/>
    <linearGradient id="linear-gradient-62" x1="0.5" y1="12.3" x2="0.5" y2="-2.718" xlink:href="#linear-gradient-2"/>
    <linearGradient id="linear-gradient-63" x1="0.5" y1="12.3" x2="0.5" y2="-2.718" xlink:href="#linear-gradient-2"/>
    <linearGradient id="linear-gradient-65" x1="0.497" y1="12.3" x2="0.497" y2="-2.718" xlink:href="#linear-gradient-2"/>
    <linearGradient id="linear-gradient-66" x1="0.499" y1="12.3" x2="0.499" y2="-2.718" xlink:href="#linear-gradient-2"/>
    <linearGradient id="linear-gradient-67" x1="0.499" y1="12.3" x2="0.499" y2="-2.718" xlink:href="#linear-gradient-2"/>
    <linearGradient id="linear-gradient-68" x1="0.501" y1="12.3" x2="0.501" y2="-2.718" xlink:href="#linear-gradient-2"/>
    <linearGradient id="linear-gradient-69" x1="0.498" y1="13.987" x2="0.498" y2="-1.664" xlink:href="#linear-gradient-2"/>
    <linearGradient id="linear-gradient-70" x1="0.5" y1="13.987" x2="0.5" y2="-1.664" xlink:href="#linear-gradient-2"/>
    <linearGradient id="linear-gradient-71" x1="0.5" y1="13.987" x2="0.5" y2="-1.664" xlink:href="#linear-gradient-2"/>
    <linearGradient id="linear-gradient-72" x1="0.499" y1="13.987" x2="0.499" y2="-1.664" xlink:href="#linear-gradient-2"/>
    <linearGradient id="linear-gradient-73" x1="0.499" y1="13.987" x2="0.499" y2="-1.664" xlink:href="#linear-gradient-2"/>
    <linearGradient id="linear-gradient-75" x1="0.499" y1="13.987" x2="0.499" y2="-1.664" xlink:href="#linear-gradient-2"/>
    <linearGradient id="linear-gradient-76" x1="0.5" y1="13.987" x2="0.5" y2="-1.664" xlink:href="#linear-gradient-2"/>
    <linearGradient id="linear-gradient-79" x1="0.5" y1="13.987" x2="0.5" y2="-1.664" xlink:href="#linear-gradient-2"/>
    <linearGradient id="linear-gradient-80" x1="0.5" y1="13.987" x2="0.5" y2="-1.664" xlink:href="#linear-gradient-2"/>
    <linearGradient id="linear-gradient-81" x1="0.501" y1="13.987" x2="0.501" y2="-1.664" xlink:href="#linear-gradient-2"/>
    <linearGradient id="linear-gradient-82" x1="0.499" y1="12.187" x2="0.499" y2="-2.681" xlink:href="#linear-gradient-2"/>
    <linearGradient id="linear-gradient-83" x1="0" y1="0.5" x2="1" y2="0.5" xlink:href="#linear-gradient"/>
    <linearGradient id="linear-gradient-84" x1="1.226" y1="3.418" x2="-1.111" y2="-5.979" xlink:href="#linear-gradient-3"/>
  </defs>
  <g id="Group_20" data-name="Group 20" transform="translate(-395.7 -249.5)">
    <g id="Group_19" data-name="Group 19">
      <g id="Group_18" data-name="Group 18">
        <path id="XMLID_193_" d="M995.8,809.4h-586c-6.5,0-13.4-3.3-14.1-12.8v-8.8l64.1-118.5A20.378,20.378,0,0,1,478.1,658H926.5c8.4,0,26.8,16.5,30.6,24L1010,789.9v3.9c.2,11.1-7.1,15.6-14.2,15.6" fill="#e3e3e3" fill-rule="evenodd"/>
        <path id="XMLID_192_" d="M995.8,797H409.9c-6.5,0-17.2-5.7-13.2-12.7L460,656.9a20.378,20.378,0,0,1,18.3-11.3H926.7a22.142,22.142,0,0,1,19.8,12.2L1009,783c4.4,8-6,14-13.2,14" fill-rule="evenodd" fill="url(#linear-gradient)"/>
        <path id="XMLID_191_" d="M472.4,342.1h461a9.389,9.389,0,0,1,9.4,9.4V635.9a9.389,9.389,0,0,1-9.4,9.4h-461a9.389,9.389,0,0,1-9.4-9.4V351.5a9.389,9.389,0,0,1,9.4-9.4" fill-rule="evenodd" fill="url(#linear-gradient-2)"/>
        <rect id="XMLID_190_" width="442.8" height="262.7" transform="translate(481.5 362.3)" fill="url(#linear-gradient-3)"/>
        <path id="XMLID_189_" d="M787.8,791.5H615.1a3.133,3.133,0,0,1-3.1-3.6l7.3-45.5a5.052,5.052,0,0,1,5-4.3H780a4.421,4.421,0,0,1,4.4,3.8l6.7,45.7a3.378,3.378,0,0,1-3.3,3.9" fill-rule="evenodd" fill="url(#linear-gradient-4)"/>
        <path id="XMLID_188_" d="M504.3,672.8H485.6c-2.6,0-4.4-.8-4-1.7l1.1-2.8c.4-.9,2.8-1.7,5.4-1.7h18.5c2.6,0,4.4.8,4.1,1.7l-1,2.8c-.4.9-2.8,1.7-5.4,1.7" fill-rule="evenodd" fill="url(#linear-gradient-5)"/>
        <path id="XMLID_187_" d="M535.9,672.8H517.2c-2.6,0-4.5-.8-4.1-1.7l1-2.8c.3-.9,2.7-1.7,5.3-1.7h18.5c2.6,0,4.5.8,4.2,1.7l-.8,2.8c-.5.9-2.8,1.7-5.4,1.7" fill-rule="evenodd" fill="url(#linear-gradient-6)"/>
        <path id="XMLID_186_" d="M567.5,672.8H548.8c-2.6,0-4.5-.8-4.2-1.7l.8-2.8c.3-.9,2.6-1.7,5.2-1.7h18.5c2.6,0,4.5.8,4.3,1.7l-.7,2.8c-.3.9-2.6,1.7-5.2,1.7" fill-rule="evenodd" fill="url(#linear-gradient-7)"/>
        <path id="XMLID_185_" d="M599.1,672.8H580.4c-2.6,0-4.6-.8-4.3-1.7l.6-2.8c.2-.9,2.5-1.7,5.1-1.7h18.5c2.6,0,4.5.8,4.4,1.7l-.5,2.8c-.3.9-2.5,1.7-5.1,1.7" fill-rule="evenodd" fill="url(#linear-gradient-8)"/>
        <path id="XMLID_184_" d="M630.6,672.8H611.9c-2.6,0-4.6-.8-4.4-1.7l.5-2.8c.2-.9,2.4-1.7,5-1.7h18.5c2.6,0,4.6.8,4.5,1.7l-.3,2.8c-.2.9-2.4,1.7-5.1,1.7" fill-rule="evenodd" fill="url(#linear-gradient-9)"/>
        <path id="XMLID_183_" d="M662.2,672.8H643.5c-2.6,0-4.6-.8-4.5-1.7l.3-2.8c.1-.9,2.3-1.7,4.9-1.7h18.5c2.6,0,4.6.8,4.6,1.7l-.2,2.8c-.1.9-2.2,1.7-4.9,1.7" fill-rule="evenodd" fill="url(#linear-gradient-10)"/>
        <path id="XMLID_182_" d="M693.8,672.8H675.1c-2.6,0-4.7-.8-4.6-1.7l.2-2.8c0-.9,2.2-1.7,4.8-1.7H694c2.6,0,4.7.8,4.7,1.7v2.8c-.1.9-2.3,1.7-4.9,1.7" fill-rule="evenodd" fill="url(#linear-gradient-11)"/>
        <path id="XMLID_181_" d="M725.4,672.8H706.7c-2.6,0-4.7-.8-4.7-1.7v-2.8c0-.9,2.1-1.7,4.7-1.7h18.5c2.6,0,4.7.8,4.8,1.7l.2,2.8c-.1.9-2.2,1.7-4.8,1.7" fill-rule="evenodd" fill="url(#linear-gradient-8)"/>
        <path id="XMLID_180_" d="M757,672.8H738.3c-2.6,0-4.8-.8-4.8-1.7l-.2-2.8c-.1-.9,2-1.7,4.6-1.7h18.5c2.6,0,4.8.8,4.9,1.7l.3,2.8c.1.9-2,1.7-4.6,1.7" fill-rule="evenodd" fill="url(#linear-gradient-13)"/>
        <path id="XMLID_179_" d="M788.6,672.8H769.9c-2.6,0-4.8-.8-4.9-1.7l-.3-2.8c-.1-.9,1.9-1.7,4.5-1.7h18.5c2.6,0,4.8.8,5,1.7l.5,2.8c0,.9-2,1.7-4.6,1.7" fill-rule="evenodd" fill="url(#linear-gradient-14)"/>
        <path id="XMLID_178_" d="M820.2,672.8H801.5c-2.6,0-4.9-.8-5-1.7l-.5-2.8c-.2-.9,1.8-1.7,4.4-1.7h18.5c2.6,0,4.9.8,5.1,1.7l.7,2.8c.1.9-1.9,1.7-4.5,1.7" fill-rule="evenodd" fill="url(#linear-gradient-15)"/>
        <path id="XMLID_177_" d="M851.8,672.8H833.1c-2.6,0-4.9-.8-5.1-1.7l-.7-2.8c-.2-.9,1.7-1.7,4.3-1.7h18.5c2.6,0,4.9.8,5.2,1.7l.8,2.8c.2.9-1.7,1.7-4.3,1.7" fill-rule="evenodd" fill="url(#linear-gradient-16)"/>
        <path id="XMLID_176_" d="M883.4,672.8H864.7c-2.6,0-5-.8-5.2-1.7l-.8-2.8c-.3-.9,1.6-1.7,4.2-1.7h18.5c2.6,0,4.9.8,5.3,1.7l1,2.8c.2.9-1.7,1.7-4.3,1.7" fill-rule="evenodd" fill="url(#linear-gradient-17)"/>
        <path id="XMLID_175_" d="M915,672.8H896.3c-2.6,0-5-.8-5.3-1.7l-1-2.8c-.3-.9,1.5-1.7,4.1-1.7h18.5c2.6,0,5,.8,5.4,1.7l1.1,2.8c.3.9-1.5,1.7-4.1,1.7" fill-rule="evenodd" fill="url(#linear-gradient-18)"/>
        <path id="XMLID_174_" d="M502.6,683.2H478.7c-.6,0-1-.2-.9-.4l3.5-8.7a1.515,1.515,0,0,1,1.2-.4H506c.6,0,1,.2.9.4l-3.1,8.7c-.1.3-.7.4-1.2.4" fill-rule="evenodd" fill="url(#linear-gradient-19)"/>
        <path id="XMLID_173_" d="M546.7,694.7H522.3c-.6,0-1-.2-1-.4l2.9-9.1a1.515,1.515,0,0,1,1.2-.4h24c.6,0,1,.2,1,.4l-2.5,9.1a1.515,1.515,0,0,1-1.2.4" fill-rule="evenodd" fill="url(#linear-gradient-20)"/>
        <path id="XMLID_172_" d="M550.7,706.7H525.8c-.6,0-1.1-.2-1-.4l2.9-9.5a1.515,1.515,0,0,1,1.2-.4h24.5c.6,0,1.1.2,1,.4l-2.5,9.5a1.515,1.515,0,0,1-1.2.4" fill-rule="evenodd" fill="url(#linear-gradient-21)"/>
        <path id="XMLID_171_" d="M564.7,719.2H539.2c-.6,0-1.1-.2-1-.5l2.7-9.9a1.515,1.515,0,0,1,1.2-.4h25c.6,0,1.1.2,1,.4l-2.3,9.9c.1.3-.5.5-1.1.5" fill-rule="evenodd" fill="url(#linear-gradient-22)"/>
        <path id="XMLID_170_" d="M484.3,733.7h-26c-.7,0-1.2-.2-1-.5l4.8-11.8c.1-.3.7-.5,1.4-.5h25.4c.7,0,1.1.2,1,.5l-4.2,11.8c0,.3-.7.5-1.4.5" fill-rule="evenodd" fill="url(#linear-gradient-23)"/>
        <path id="XMLID_169_" d="M519,733.7H493c-.7,0-1.2-.2-1.1-.5l4.1-11.8c.1-.3.7-.5,1.4-.5h25.4c.7,0,1.2.2,1.1.5l-3.5,11.8c-.1.3-.7.5-1.4.5" fill-rule="evenodd" fill="url(#linear-gradient-24)"/>
        <path id="XMLID_168_" d="M552.6,733.7h-26c-.7,0-1.2-.2-1.1-.5l3.4-11.8c.1-.3.7-.5,1.4-.5h25.4c.7,0,1.2.2,1.1.5l-2.9,11.8c0,.3-.6.5-1.3.5" fill-rule="evenodd" fill="url(#linear-gradient-25)"/>
        <path id="XMLID_167_" d="M595,733.7H560.7c-.8,0-1.4-.3-1.3-.6l2.7-11.6c.1-.3.8-.6,1.5-.6h33.5c.8,0,1.4.2,1.3.6l-2,11.6c.1.3-.6.6-1.4.6" fill-rule="evenodd" fill="url(#linear-gradient-26)"/>
        <path id="XMLID_166_" d="M805.8,733.7H771.5c-.8,0-1.5-.3-1.5-.6l-1.4-11.6c0-.3.6-.6,1.3-.6h33.5c.8,0,1.4.2,1.5.6l2.1,11.6c.1.3-.5.6-1.2.6" fill-rule="evenodd" fill="url(#linear-gradient-27)"/>
        <path id="XMLID_165_" d="M840.4,733.7H814.8c-.7,0-1.3-.2-1.3-.5l-2.2-11.8c-.1-.3.5-.5,1.1-.5h25c.7,0,1.3.2,1.3.5l2.8,11.8c.1.3-.4.5-1.1.5" fill-rule="evenodd" fill="url(#linear-gradient-28)"/>
        <path id="XMLID_164_" d="M763,733.7H604.9c-1.7,0-2.9-.5-2.8-1.2l1.7-10.4c.1-.6,1.5-1.2,3.1-1.2H761.6c1.6,0,3,.5,3.1,1.2l1.2,10.4c0,.6-1.3,1.2-2.9,1.2" fill-rule="evenodd" fill="url(#linear-gradient-29)"/>
        <path id="XMLID_163_" d="M597.8,719.2H572.3c-.6,0-1.1-.2-1-.5l2.2-9.9a1.515,1.515,0,0,1,1.2-.4h25c.6,0,1.1.2,1.1.4l-1.7,9.9c-.1.3-.7.5-1.3.5" fill-rule="evenodd" fill="url(#linear-gradient-30)"/>
        <path id="XMLID_162_" d="M630.9,719.2H605.4c-.6,0-1.1-.2-1.1-.5l1.6-9.9c0-.2.6-.4,1.2-.4h25c.6,0,1.1.2,1.1.4l-1.1,9.9c-.1.3-.6.5-1.2.5" fill-rule="evenodd" fill="url(#linear-gradient-31)"/>
        <path id="XMLID_161_" d="M664,719.2H638.5c-.6,0-1.1-.2-1.1-.5l1.1-9.9c0-.2.6-.4,1.2-.4h25c.6,0,1.1.2,1.1.4l-.6,9.9c-.1.3-.6.5-1.2.5" fill-rule="evenodd" fill="url(#linear-gradient-32)"/>
        <path id="XMLID_160_" d="M697,719.2H671.5c-.6,0-1.1-.2-1.1-.5l.5-9.9c0-.2.5-.4,1.1-.4h25c.6,0,1.1.2,1.1.4v9.9c.1.3-.4.5-1.1.5" fill-rule="evenodd" fill="url(#linear-gradient-33)"/>
        <path id="XMLID_159_" d="M730.1,719.2H704.6c-.6,0-1.1-.2-1.2-.5l-.1-9.9c0-.2.5-.4,1.1-.4h25a1.515,1.515,0,0,1,1.2.4l.5,9.9c.1.3-.4.5-1,.5" fill-rule="evenodd" fill="url(#linear-gradient-34)"/>
        <path id="XMLID_158_" d="M763.2,719.2H737.7c-.6,0-1.2-.2-1.2-.5l-.6-9.9c0-.2.5-.4,1.1-.4h25a1.515,1.515,0,0,1,1.2.4l1.1,9.9c0,.3-.5.5-1.1.5" fill-rule="evenodd" fill="url(#linear-gradient-35)"/>
        <path id="XMLID_157_" d="M796.3,719.2H770.8c-.6,0-1.2-.2-1.2-.5l-1.2-9.9c0-.2.5-.4,1.1-.4h25c.6,0,1.2.2,1.2.4l1.7,9.9c0,.3-.5.5-1.1.5" fill-rule="evenodd" fill="url(#linear-gradient-36)"/>
        <path id="XMLID_156_" d="M829.4,719.2H803.9c-.6,0-1.2-.2-1.2-.5l-1.8-9.9c0-.2.4-.4,1-.4h25c.6,0,1.2.2,1.2.4l2.2,9.9c.2.3-.3.5-.9.5" fill-rule="evenodd" fill="url(#linear-gradient-37)"/>
        <path id="XMLID_155_" d="M871.1,733.9H851.2c-2.5,0-4.8-.8-5-1.9l-.7-3c-.2-1,1.6-1.8,4.1-1.8h19.6c2.5,0,4.8.8,5.1,1.8l.9,3c.2,1.1-1.6,1.9-4.1,1.9" fill-rule="evenodd" fill="url(#linear-gradient-38)"/>
        <path id="XMLID_154_" d="M905.1,733.9H885.2c-2.5,0-4.8-.8-5.1-1.9l-.9-3c-.3-1,1.5-1.8,4-1.8h19.6c2.5,0,4.8.8,5.2,1.8l1,3c.4,1.1-1.3,1.9-3.9,1.9" fill-rule="evenodd" fill="url(#linear-gradient-39)"/>
        <path id="XMLID_153_" d="M902.6,726.4H883c-2.5,0-4.8-.8-5.1-1.8l-.9-2.9c-.3-1,1.5-1.8,3.9-1.8h19.4c2.5,0,4.7.8,5.1,1.8l1,2.9c.4,1-1.3,1.8-3.8,1.8" fill-rule="evenodd" fill="url(#linear-gradient-40)"/>
        <path id="XMLID_152_" d="M939.1,733.9H919.2c-2.5,0-4.9-.8-5.2-1.9l-1.1-3c-.4-1,1.4-1.8,3.9-1.8h19.6c2.5,0,4.9.8,5.3,1.8l1.2,3c.5,1.1-1.2,1.9-3.8,1.9" fill-rule="evenodd" fill="url(#linear-gradient-41)"/>
        <path id="XMLID_151_" d="M583.3,706.7H558.4c-.6,0-1.1-.2-1-.4l2.4-9.5a1.515,1.515,0,0,1,1.2-.4h24.5c.6,0,1.1.2,1,.4l-1.9,9.5c-.1.2-.6.4-1.3.4" fill-rule="evenodd" fill="url(#linear-gradient-42)"/>
        <path id="XMLID_150_" d="M616,706.7H591.1c-.6,0-1.1-.2-1-.4l1.8-9.5c0-.2.6-.4,1.2-.4h24.5c.6,0,1.1.2,1,.4l-1.4,9.5c0,.2-.6.4-1.2.4" fill-rule="evenodd" fill="url(#linear-gradient-21)"/>
        <path id="XMLID_149_" d="M648.7,706.7H623.8c-.6,0-1.1-.2-1.1-.4l1.3-9.5c0-.2.6-.4,1.2-.4h24.5c.6,0,1.1.2,1.1.4l-.8,9.5a2,2,0,0,1-1.3.4" fill-rule="evenodd" fill="url(#linear-gradient-44)"/>
        <path id="XMLID_148_" d="M681.2,706.7H656.3c-.6,0-1.1-.2-1.1-.4l.7-9.5c0-.2.5-.4,1.1-.4h24.5c.6,0,1.1.2,1.1.4l-.3,9.5c0,.2-.5.4-1.1.4" fill-rule="evenodd" fill="url(#linear-gradient-45)"/>
        <path id="XMLID_147_" d="M713.8,706.7H688.9c-.6,0-1.1-.2-1.1-.4l.2-9.5c0-.2.5-.4,1.1-.4h24.5c.6,0,1.1.2,1.1.4l.3,9.5c0,.2-.5.4-1.2.4" fill-rule="evenodd" fill="url(#linear-gradient-46)"/>
        <path id="XMLID_146_" d="M745.1,706.7H720.2c-.6,0-1.1-.2-1.1-.4l-.3-9.5c0-.2.5-.4,1.1-.4h24.5c.6,0,1.1.2,1.1.4l.8,9.5a1.515,1.515,0,0,1-1.2.4" fill-rule="evenodd" fill="url(#linear-gradient-47)"/>
        <path id="XMLID_145_" d="M777.5,706.7H752.6a1.515,1.515,0,0,1-1.2-.4l-.9-9.5c0-.2.5-.4,1.1-.4h24.5a1.515,1.515,0,0,1,1.2.4l1.3,9.5c0,.2-.5.4-1.1.4" fill-rule="evenodd" fill="url(#linear-gradient-42)"/>
        <path id="XMLID_144_" d="M809.9,706.7H785c-.6,0-1.2-.2-1.2-.4l-1.4-9.5c0-.2.4-.4,1-.4h24.5a1.515,1.515,0,0,1,1.2.4l1.9,9.5c-.1.2-.5.4-1.1.4" fill-rule="evenodd" fill="url(#linear-gradient-49)"/>
        <path id="XMLID_143_" d="M842,706.7H817.1c-.6,0-1.2-.2-1.2-.4l-1.9-9.5c0-.2.4-.4,1-.4h24.5c.6,0,1.2.2,1.2.4l2.4,9.5c0,.2-.5.4-1.1.4" fill-rule="evenodd" fill="url(#linear-gradient-50)"/>
        <path id="XMLID_142_" d="M874.2,706.7H849.3c-.6,0-1.2-.2-1.2-.4l-2.5-9.5c-.1-.2.4-.4,1-.4h24.5c.6,0,1.2.2,1.2.4l2.9,9.5c.1.2-.4.4-1,.4" fill-rule="evenodd" fill="url(#linear-gradient-51)"/>
        <path id="XMLID_141_" d="M862.1,719.2H836.6c-.6,0-1.2-.2-1.3-.5l-2.3-9.9c-.1-.2.4-.4,1-.4h25c.6,0,1.2.2,1.2.4l2.8,9.9c.2.3-.3.5-.9.5" fill-rule="evenodd" fill="url(#linear-gradient-52)"/>
        <path id="XMLID_140_" d="M931.2,706.7H883.1c-.9,0-1.6-.3-1.7-.6l-2.9-9.2c-.1-.3.5-.6,1.3-.6h47.3a2.536,2.536,0,0,1,1.8.6l3.8,9.2c-.1.3-.6.6-1.5.6" fill-rule="evenodd" fill="url(#linear-gradient-53)"/>
        <path id="XMLID_139_" d="M936,719.2H870c-1,0-1.9-.3-2-.7l-2.7-9.4c-.1-.4.6-.7,1.6-.7h64.7c1,0,1.9.3,2.1.7l3.8,9.4c.2.3-.5.7-1.5.7" fill-rule="evenodd" fill="url(#linear-gradient-54)"/>
        <path id="XMLID_138_" d="M518.3,706.7H469.6c-.9,0-1.4-.3-1.3-.6l3.7-9.2c.1-.3.9-.6,1.8-.6h47.8c.8,0,1.4.3,1.3.6l-2.9,9.2c-.1.3-.9.6-1.7.6" fill-rule="evenodd" fill="url(#linear-gradient-55)"/>
        <path id="XMLID_137_" d="M531.2,719.2H464.3c-1,0-1.7-.3-1.5-.7l3.8-9.4c.2-.4,1.1-.7,2.1-.7h65.7c1,0,1.7.3,1.6.7l-2.7,9.4a3,3,0,0,1-2.1.7" fill-rule="evenodd" fill="url(#linear-gradient-56)"/>
        <path id="XMLID_136_" d="M578.5,694.7H554.1c-.6,0-1.1-.2-1-.4l2.4-9.1a1.515,1.515,0,0,1,1.2-.4h24c.6,0,1,.2,1,.4l-2,9.1a1.515,1.515,0,0,1-1.2.4" fill-rule="evenodd" fill="url(#linear-gradient-57)"/>
        <path id="XMLID_135_" d="M610.1,694.7H585.7c-.6,0-1.1-.2-1-.4l1.9-9.1c0-.2.6-.4,1.2-.4h24c.6,0,1.1.2,1,.4l-1.4,9.1a1.8,1.8,0,0,1-1.3.4" fill-rule="evenodd" fill="url(#linear-gradient-58)"/>
        <path id="XMLID_134_" d="M642,694.7H617.6c-.6,0-1.1-.2-1-.4l1.4-9.1c0-.2.5-.4,1.1-.4h24c.6,0,1.1.2,1,.4l-.9,9.1a1.515,1.515,0,0,1-1.2.4" fill-rule="evenodd" fill="url(#linear-gradient-59)"/>
        <path id="XMLID_133_" d="M673.8,694.7H649.4c-.6,0-1.1-.2-1.1-.4l.8-9.1c0-.2.5-.4,1.1-.4h24c.6,0,1.1.2,1.1.4l-.4,9.1c0,.2-.5.4-1.1.4" fill-rule="evenodd" fill="url(#linear-gradient-60)"/>
        <path id="XMLID_132_" d="M705.4,694.7H681c-.6,0-1.1-.2-1.1-.4l.3-9.1c0-.2.5-.4,1.1-.4h24c.6,0,1.1.2,1.1.4l.1,9.1c0,.2-.5.4-1.1.4" fill-rule="evenodd" fill="url(#linear-gradient-61)"/>
        <path id="XMLID_131_" d="M736.3,694.7H711.9c-.6,0-1.1-.2-1.1-.4l-.2-9.1c0-.2.5-.4,1.1-.4h24c.6,0,1.1.2,1.1.4l.6,9.1c0,.2-.5.4-1.1.4" fill-rule="evenodd" fill="url(#linear-gradient-62)"/>
        <path id="XMLID_130_" d="M768.4,694.7H744c-.6,0-1.1-.2-1.1-.4l-.7-9.1c0-.2.5-.4,1-.4h24c.6,0,1.1.2,1.1.4l1.1,9.1c.1.2-.4.4-1,.4" fill-rule="evenodd" fill="url(#linear-gradient-63)"/>
        <path id="XMLID_129_" d="M800.1,694.7H775.7a1.515,1.515,0,0,1-1.2-.4l-1.2-9.1c0-.2.4-.4,1-.4h24a1.515,1.515,0,0,1,1.2.4l1.7,9.1c0,.2-.5.4-1.1.4" fill-rule="evenodd" fill="url(#linear-gradient-58)"/>
        <path id="XMLID_128_" d="M831.3,694.7H806.9a1.515,1.515,0,0,1-1.2-.4l-1.7-9.1c0-.2.4-.4,1-.4h24a1.515,1.515,0,0,1,1.2.4l2.2,9.1c-.1.2-.5.4-1.1.4" fill-rule="evenodd" fill="url(#linear-gradient-65)"/>
        <path id="XMLID_127_" d="M863.8,694.7H839.4a1.515,1.515,0,0,1-1.2-.4l-2.3-9.1c-.1-.2.4-.4,1-.4h24a1.515,1.515,0,0,1,1.2.4l2.7,9.1c0,.2-.4.4-1,.4" fill-rule="evenodd" fill="url(#linear-gradient-66)"/>
        <path id="XMLID_126_" d="M894.8,694.7H870.4c-.6,0-1.2-.2-1.2-.4l-2.8-9.1c-.1-.2.4-.4,1-.4h24a1.515,1.515,0,0,1,1.2.4l3.2,9.1c0,.2-.4.4-1,.4" fill-rule="evenodd" fill="url(#linear-gradient-67)"/>
        <path id="XMLID_125_" d="M926.8,694.7H902.4a1.8,1.8,0,0,1-1.3-.4l-3.3-9.1c-.1-.2.3-.4.9-.4h24c.6,0,1.2.2,1.2.4l3.7,9.1c.2.2-.2.4-.8.4" fill-rule="evenodd" fill="url(#linear-gradient-68)"/>
        <path id="XMLID_124_" d="M534.2,683.2H510.3c-.6,0-1-.2-.9-.4l3-8.7a1.515,1.515,0,0,1,1.2-.4h23.5c.6,0,1,.2.9.4l-2.6,8.7c-.1.3-.6.4-1.2.4" fill-rule="evenodd" fill="url(#linear-gradient-69)"/>
        <path id="XMLID_123_" d="M564.8,683.2H540.9c-.6,0-1-.2-1-.4l2.6-8.7a1.515,1.515,0,0,1,1.2-.4h23.5c.6,0,1,.2,1,.4l-2.1,8.7c-.2.3-.7.4-1.3.4" fill-rule="evenodd" fill="url(#linear-gradient-70)"/>
        <path id="XMLID_122_" d="M596.3,683.2H572.4c-.6,0-1-.2-1-.4l2-8.7c0-.2.6-.4,1.1-.4H598c.6,0,1,.2,1,.4l-1.6,8.7c0,.3-.6.4-1.1.4" fill-rule="evenodd" fill="url(#linear-gradient-71)"/>
        <path id="XMLID_121_" d="M626.9,683.2H603c-.6,0-1-.2-1-.4l1.6-8.7c0-.2.5-.4,1.1-.4h23.5c.6,0,1,.2,1,.4l-1.1,8.7c-.1.3-.6.4-1.2.4" fill-rule="evenodd" fill="url(#linear-gradient-72)"/>
        <path id="XMLID_120_" d="M658.5,683.2H634.6c-.6,0-1.1-.2-1-.4l1.1-8.7c0-.2.5-.4,1.1-.4h23.5c.6,0,1,.2,1,.4l-.6,8.7c-.1.3-.6.4-1.2.4" fill-rule="evenodd" fill="url(#linear-gradient-73)"/>
        <path id="XMLID_119_" d="M688.9,683.2H665c-.6,0-1.1-.2-1.1-.4l.6-8.7c0-.2.5-.4,1.1-.4h23.5c.6,0,1.1.2,1.1.4l-.2,8.7c0,.3-.5.4-1.1.4" fill-rule="evenodd" fill="url(#linear-gradient-19)"/>
        <path id="XMLID_118_" d="M720.4,683.2H696.5c-.6,0-1.1-.2-1.1-.4l.1-8.7c0-.2.5-.4,1.1-.4h23.5c.6,0,1.1.2,1.1.4l.4,8.7c-.1.3-.6.4-1.2.4" fill-rule="evenodd" fill="url(#linear-gradient-75)"/>
        <path id="XMLID_117_" d="M751.1,683.2H727.2c-.6,0-1.1-.2-1.1-.4l-.4-8.7c0-.2.5-.4,1-.4h23.5c.6,0,1.1.2,1.1.4l.8,8.7c.1.3-.4.4-1,.4" fill-rule="evenodd" fill="url(#linear-gradient-76)"/>
        <path id="XMLID_116_" d="M782.6,683.2H758.7c-.6,0-1.1-.2-1.1-.4l-.9-8.7c0-.2.4-.4,1-.4h23.5c.6,0,1.1.2,1.1.4l1.3,8.7c0,.3-.4.4-1,.4" fill-rule="evenodd" fill="url(#linear-gradient-19)"/>
        <path id="XMLID_115_" d="M814,683.2H790.1c-.6,0-1.1-.2-1.1-.4l-1.4-8.7c0-.2.4-.4,1-.4h23.5c.6,0,1.1.2,1.1.4l1.8,8.7c.1.3-.4.4-1,.4" fill-rule="evenodd" fill="url(#linear-gradient-73)"/>
        <path id="XMLID_114_" d="M845.1,683.2H821.2a1.515,1.515,0,0,1-1.2-.4l-1.9-8.7c0-.2.4-.4,1-.4h23.5a1.515,1.515,0,0,1,1.2.4l2.3,8.7c0,.3-.4.4-1,.4" fill-rule="evenodd" fill="url(#linear-gradient-79)"/>
        <path id="XMLID_113_" d="M875,683.2H851.1a1.515,1.515,0,0,1-1.2-.4l-2.4-8.7c-.1-.2.4-.4,1-.4H872a1.515,1.515,0,0,1,1.2.4l2.8,8.7c0,.3-.4.4-1,.4" fill-rule="evenodd" fill="url(#linear-gradient-80)"/>
        <path id="XMLID_112_" d="M919.8,683.2H884c-1.7,0-3.2-.5-3.4-1.1l-2.4-7.3c-.2-.6,1-1.1,2.6-1.1h35.1c1.6,0,3.1.5,3.4,1.1l3,7.3c.3.6-.8,1.1-2.5,1.1" fill-rule="evenodd" fill="url(#linear-gradient-81)"/>
        <path id="XMLID_111_" d="M512.5,694.7H476c-1.7,0-2.8-.5-2.6-1.2l3.1-7.7c.3-.6,1.8-1.1,3.5-1.1h35.9c1.7,0,2.8.5,2.6,1.1l-2.5,7.7c-.3.7-1.8,1.2-3.5,1.2" fill-rule="evenodd" fill="url(#linear-gradient-82)"/>
        <rect id="XMLID_110_" width="442.8" height="18" transform="translate(481.5 362.3)" fill="url(#linear-gradient-83)"/>
        <rect id="XMLID_109_" width="442.8" height="58.1" transform="translate(481.5 567)" fill="url(#linear-gradient-84)"/>
        <rect id="XMLID_108_" width="246.9" height="71.3" transform="translate(502.9 401.3)" fill="#38d9b3"/>
        <rect id="XMLID_107_" width="144.1" height="149" transform="translate(761.6 401.3)" fill="#e2e3e4"/>
        <rect id="XMLID_106_" width="79.9" height="67.8" transform="translate(669.8 482.4)" fill="#0e5875"/>
        <rect id="XMLID_105_" width="155.3" height="67.8" transform="translate(502.9 482.4)" fill="#fff"/>
        <path id="XMLID_94_" d="M975,249.5Z" fill="#fff" fill-rule="evenodd"/>
      </g>
    </g>
  </g>
</svg>
