<svg xmlns="http://www.w3.org/2000/svg" xmlns:xlink="http://www.w3.org/1999/xlink" width="414" height="736" viewBox="0 0 414 736">
  <defs>
    <linearGradient id="linear-gradient" x1="-0.083" y1="0.403" x2="1" y2="0.419" gradientUnits="objectBoundingBox">
      <stop offset="0" stop-color="#250189"/>
      <stop offset="0.093" stop-color="#23019c" stop-opacity="0.478"/>
      <stop offset="1" stop-color="#2f76d8" stop-opacity="0.439"/>
      <stop offset="1" stop-color="#611212"/>
    </linearGradient>
    <clipPath id="clip-phone1">
      <rect width="414" height="736"/>
    </clipPath>
  </defs>
  <g id="phone1" clip-path="url(#clip-phone1)">
    <rect width="414" height="736" fill="#fff"/>
    <path id="grey1" d="M60.373,0l-.64.214L0,44.723l22.692,70.192H98.438l23.331-70.192L61,.147Z" transform="translate(102.585 183.449) rotate(141)" fill="rgba(132,130,139,0.09)" stroke="#fff" stroke-width="1"/>
    <path id="grey1-2" data-name="grey1" d="M230.889,0,228.44.818,0,171.037,86.782,439.475h289.68l89.226-268.438L233.273.563Z" transform="translate(194.808 450.793) rotate(-36)" fill="rgba(132,130,139,0.23)" stroke="#fff" stroke-width="1"/>
    <path id="darkblue" d="M101.908,0l-1.081.365L0,76.309,38.3,196.073H166.16L205.542,76.309,102.96.251Z" transform="translate(-6.092 508.467) rotate(-113)" stroke="#fff" stroke-width="1" fill="url(#linear-gradient)"/>
    <path id="darkblue-2" data-name="darkblue" d="M147.619,0l-1.566.529L0,110.537,55.484,284.022H240.691l57.047-173.485L149.143.364Z" transform="translate(477.505 336.124) rotate(-173)" stroke="#fff" stroke-width="1" fill="url(#linear-gradient)"/>
    <path id="grey1-3" data-name="grey1" d="M60.373,0l-.64.214L0,44.723l22.692,70.192H98.438l23.331-70.192L61,.147Z" transform="matrix(-1, -0.017, 0.017, -1, 140.982, 656.624)" fill="rgba(132,130,139,0.09)" stroke="#fff" stroke-width="1"/>
  </g>
</svg>
