<svg xmlns="http://www.w3.org/2000/svg" xmlns:xlink="http://www.w3.org/1999/xlink" width="1920" height="1080" viewBox="0 0 1920 1080">
  <defs>
    <clipPath id="clip-path">
      <rect width="1226" height="606" fill="none"/>
    </clipPath>
    <linearGradient id="linear-gradient" x1="0.5" x2="0.5" y2="1" gradientUnits="objectBoundingBox">
      <stop offset="0" stop-color="#632ff3" stop-opacity="0.761"/>
      <stop offset="1" stop-color="#4d1578" stop-opacity="0.78"/>
    </linearGradient>
    <linearGradient id="linear-gradient-2" x1="0.047" y1="0.389" x2="1" y2="0.419" gradientUnits="objectBoundingBox">
      <stop offset="0" stop-color="#250189"/>
      <stop offset="0" stop-color="#29008b" stop-opacity="0.302"/>
      <stop offset="0.084" stop-color="#23019c" stop-opacity="0.478"/>
      <stop offset="1" stop-color="#2f76d8" stop-opacity="0.439"/>
      <stop offset="1" stop-color="#611212"/>
    </linearGradient>
    <clipPath id="clip-rules">
      <rect width="1920" height="1080"/>
    </clipPath>
  </defs>
  <g id="rules" clip-path="url(#clip-rules)">
    <rect width="1920" height="1080" fill="#fff"/>
    <g id="Group_4" data-name="Group 4" transform="translate(-6 -116)">
      <path id="grey1" d="M265.451,2.3l-4.082.144-3.577,2.2L5.3,193.023l-1.868,1.8-1.735,2.582.012,3.783.773,2.529L98.144,499.25l.888,2.9,1.607,1.875,1.785,1.012h3.443l304.206.107,8.738,0,9.459-2.892,6.7-7.118,3.13-9.432,86.787-261.567,2.094-12.426-.753-11.9-6.032-10.289-8.879-9.765L274.089,6.337,269.4,3.3Z" transform="matrix(0.07, -0.998, 0.998, 0.07, 1101.14, 795.145)" stroke="#fff" stroke-width="1" fill="url(#linear-gradient)"/>
      <g id="Group_3" data-name="Group 3" transform="translate(608.09 180)">
        <g id="rules-2" data-name="rules" transform="translate(526.406 217)">
          <path id="Path_16" data-name="Path 16" d="M878.7,305.347,868.641,294.79s-11.059-16.589-19.1-12.065S861.1,297.807,861.1,297.807L871.155,314.4Z" transform="translate(-515.445 -203.938)" fill="#a0616a"/>
          <path id="Path_17" data-name="Path 17" d="M939.031,735.5s7.541,14.578,2.011,15.584-32.675,2.514-33.178,1.005-4.524-6.535-1.508-8.546,15.081-3.519,15.081-3.519L925.458,736Z" transform="translate(-544.11 -429.492)" fill="#2f2e41"/>
          <path id="Path_18" data-name="Path 18" d="M937.19,451.66s16.086,20.108,3.016,40.719l-3.016,34.686s5.53,47.756-1.508,63.843l-1.005,5.53H917.082l4.524-42.227s-.5-5.027-2.011-6.032-26.14-55.3-26.14-55.3,4.021-7.54,2.513-9.049,1.508-31.67,3.016-32.675S937.19,451.66,937.19,451.66Z" transform="translate(-538.248 -287.917)" fill="#2f2e41"/>
          <path id="Path_19" data-name="Path 19" d="M815.421,597.739,813.41,609.3l19.605-1.005L830.5,595.728Z" transform="translate(-445.133 -296.256)" fill="#a0616a"/>
          <circle id="Ellipse_3" data-name="Ellipse 3" cx="15.081" cy="15.081" r="15.081" transform="translate(358.726 66.219)" fill="#a0616a"/>
          <path id="Path_20" data-name="Path 20" d="M943.033,293.5l1.508,18.1-16.086,7.54s2.765-16.84.754-21.365Z" transform="translate(-555.653 -209.685)" fill="#a0616a"/>
          <path id="Path_21" data-name="Path 21" d="M909.732,329.072l1.508-6.032,20.611-7.54s2.011,0,1.508,3.519-.5,3.016-.5,3.016,7.038,3.016,7.54,8.043,8.546,6.535,8.043,14.076-3.016,11.562-3.016,11.562,2.513,6.032-1.508,9.551c0,0-4.022,7.038-2.011,12.065S946.429,390.9,940.9,389.4s-43.735-4.022-43.735-4.022-5.53-20.611.5-28.151c0,0,0-4.524,4.524-13.573S909.732,329.072,909.732,329.072Z" transform="translate(-538.941 -220.626)" fill="rgba(94,55,188,0.88)"/>
          <path id="Path_22" data-name="Path 22" d="M949.33,451.521s-6.535,27.648-14.578,30.665c0,0-1.508,20.108-10.054,19.1s0-19.1,0-19.1l9.551-34.686Z" transform="translate(-551.896 -286.269)" fill="#a0616a"/>
          <path id="Path_23" data-name="Path 23" d="M905.55,335.329s-7.54-12.065-9.551-10.054-12.065,8.043-11.562,12.065,5.027,4.022,5.027,4.022l10.557,8.043Z" transform="translate(-533.754 -225.375)" fill="#4737bc"/>
          <path id="Path_24" data-name="Path 24" d="M895.509,524.5l-6.032,4.336-4.022,42.917s14.578,58.313,18.6,58.816,20.611.5,20.108-1.005-3.016-7.54-3.016-9.049-5.243-13.569-5.243-13.569l-6.822-28.155,1.508-22.119Z" transform="translate(-534.269 -324.561)" fill="#2f2e41"/>
          <path id="Path_25" data-name="Path 25" d="M898.077,736.3s21.113-6.535,22.119-5.027,7.712,16.708-1.674,18.408-43.066,4.716-43.066.192,1.005-7.54,4.022-7.54,16.589-6.535,17.594-8.043S898.077,736.3,898.077,736.3Z" transform="translate(-529.296 -427.279)" fill="#2f2e41"/>
          <path id="Path_26" data-name="Path 26" d="M928.055,265.749a1.489,1.489,0,0,0-2.014-1.99l-.026.015a2.609,2.609,0,0,0-1.227,2.608c-1.813-1.809-.477-5.436-2.435-7.086-.907-.764-2.378-.932-2.844-2.022-.271-.635-.087-1.387-.326-2.034a2.948,2.948,0,0,0-2.5-1.514c-3.187-.475-6.41.333-9.531,1.136a6.684,6.684,0,0,0-3.19,1.463,11.233,11.233,0,0,0-1.727,3.295c-.54,1.125-4.08,1.024-5.318.864-.43-1.222,2.748-1.314,3.007-2.584.709-3.47-1.76-7.16-.549-10.488.73-2.006,2.637-3.333,4.557-4.266a24.184,24.184,0,0,1,17.111-1.46,3.8,3.8,0,0,1,1.58.764c.731.682.866,1.777,1.353,2.65,1.109,1.989,3.738,2.462,5.511,3.891,2.685,2.165,2.988,6.073,3.075,9.521a11.721,11.721,0,0,1-.637,5.125c-.711,1.585-2.4,2.876-4.1,2.544C927.9,266.051,927.98,265.9,928.055,265.749Z" transform="translate(-539.949 -183.457)" fill="#2f2e41"/>
          <path id="Path_27" data-name="Path 27" d="M946.61,353.352a10.711,10.711,0,0,1,13.074.664c3.465,2.944,7.192,7.162,6.919,11.529-.5,8.043-3.519,41.221-7.54,41.724s-18.6-3.519-18.6-6.032,3.519-5.53,3.519-5.53l-4.273-25.635a16.945,16.945,0,0,1,6.676-16.559Z" transform="translate(-561.126 -238.499)" fill="#4737bc"/>
          <path id="Path_28" data-name="Path 28" d="M636.756,126.771H515.8a25.713,25.713,0,0,0-25.083,20.058L429.6,417.919a20.782,20.782,0,0,0,19.25,25.327l124.345,6.126a27.455,27.455,0,0,0,28.368-22.535L636.23,235.174l2.579.737,6.634-36.327-2.655-.664,9.677-53.5a15.831,15.831,0,0,0-15.709-18.648Z" transform="translate(-307.318 -126.771)" fill="#3f3d56"/>
          <path id="Path_29" data-name="Path 29" d="M543.827,138.4H529.707a17.77,17.77,0,0,0-17.361,13.982L453.682,421.256a11.011,11.011,0,0,0,10.038,13.334l123.943,8.123a14.26,14.26,0,0,0,14.967-11.7L620,334.592,652.687,153.1A12.49,12.49,0,0,0,640.4,138.4H627a5.9,5.9,0,0,0-5.692,4.362h0a5.2,5.2,0,0,1-5.025,3.851H552.7a8.9,8.9,0,0,1-8.869-8.213Z" transform="translate(-319.422 -132.552)" fill="#9870c3"/>
          <rect id="Rectangle_3" data-name="Rectangle 3" width="128.251" height="0.632" transform="translate(184.918 75.34)" fill="#2f2e41"/>
          <rect id="Rectangle_4" data-name="Rectangle 4" width="129.515" height="0.632" transform="translate(179.864 95.873)" fill="#2f2e41"/>
          <rect id="Rectangle_5" data-name="Rectangle 5" width="0.632" height="134.284" transform="translate(165.642 166.631) rotate(-88.787)" fill="#2f2e41"/>
          <rect id="Rectangle_6" data-name="Rectangle 6" width="0.632" height="136.817" transform="matrix(0.023, -1, 1, 0.023, 161.535, 185.271)" fill="#2f2e41"/>
          <path id="Path_32" data-name="Path 32" d="M615.667,570.963a30.01,30.01,0,1,1-60.019,0c0-.376.006-.749.022-1.121a30.006,30.006,0,1,1,60,1.122Z" transform="translate(-370.256 -332.465)" opacity="0.1"/>
          <path id="Path_33" data-name="Path 33" d="M612.824,594.765c0,.376-.006.749-.022,1.121a30.013,30.013,0,0,1-57.154-12.81c0-.376.006-.749.022-1.121a30.013,30.013,0,0,1,57.154,12.809Z" transform="translate(-370.256 -344.579)" opacity="0.1"/>
          <path id="Path_34" data-name="Path 34" d="M486.663,458.68l-10.668-14.224,2.527-1.9,8.691,11.588,34.218-28,2,2.445Z" transform="translate(-277.336 -211.926)" fill="#f2f2f2"/>
          <text id="RULES-3" data-name="RULES" transform="matrix(1, 0.017, -0.017, 1, 227.747, 27.19)" fill="#3f3d56" font-size="20" font-family="SegoeUI-Italic, Segoe UI" font-style="italic"><tspan x="0" y="22">RULES</tspan></text>
        </g>
      </g>
    </g>
    <path id="grey1-2" data-name="grey1" d="M145.32,0l-1.541.515L0,107.65,54.62,276.6H236.942L293.1,107.65,146.82.354Z" transform="matrix(0.391, 0.921, -0.921, 0.391, 1960.044, 56.44)" fill="rgba(132,130,139,0.09)" stroke="#fff" stroke-width="1"/>
    <path id="grey1-3" data-name="grey1" d="M145.32,0l-1.541.515L0,107.65,54.62,276.6H236.942L293.1,107.65,146.82.354Z" transform="matrix(0.017, 1, -1, 0.017, 216.721, 391.438)" fill="rgba(132,130,139,0.09)" stroke="#fff" stroke-width="1"/>
    <path id="grey1-4" data-name="grey1" d="M70.228,0l-.745.249L0,52.023l26.4,81.649h88.11l27.139-81.649L70.953.171Z" transform="translate(1583.19 91.266) rotate(-8)" fill="rgba(132,130,139,0.09)" stroke="#fff" stroke-width="1"/>
    <path id="darkblue" d="M147.619,0l-1.566.529L0,110.537,55.484,284.022H240.691l57.047-173.485L149.143.364Z" transform="translate(10.529 -16.713) rotate(19)" stroke="#fff" stroke-width="1" fill="url(#linear-gradient-2)"/>
  </g>
</svg>
